<svg xmlns="http://www.w3.org/2000/svg" xmlns:xlink="http://www.w3.org/1999/xlink" width="500" zoomAndPan="magnify" viewBox="0 0 375 374.999991" height="500" preserveAspectRatio="xMidYMid meet" version="1.0"><defs><g/><clipPath id="85a9aa53ce"><path d="M 135 63.027344 L 188 63.027344 L 188 211 L 135 211 Z M 135 63.027344 " clip-rule="nonzero"/></clipPath><clipPath id="63fe98d82b"><path d="M 96.949219 91.542969 L 187.605469 91.542969 L 187.605469 238.527344 L 96.949219 238.527344 Z M 96.949219 91.542969 " clip-rule="nonzero"/></clipPath><clipPath id="6c5c67f952"><path d="M 187 63.027344 L 240 63.027344 L 240 210 L 187 210 Z M 187 63.027344 " clip-rule="nonzero"/></clipPath><clipPath id="c5ba71623d"><path d="M 187.179688 91.542969 L 278.042969 91.542969 L 278.042969 238.527344 L 187.179688 238.527344 Z M 187.179688 91.542969 " clip-rule="nonzero"/></clipPath><clipPath id="580fa2ce87"><path d="M 182.496094 116.65625 L 192.710938 116.65625 L 192.710938 238.527344 L 182.496094 238.527344 Z M 182.496094 116.65625 " clip-rule="nonzero"/></clipPath></defs><g clip-path="url(#85a9aa53ce)"><path fill="#145da0" d="M 135.800781 63.089844 C 135.800781 63.089844 180.785156 66.699219 187.496094 120.1875 L 187.496094 210.0625 C 187.496094 210.0625 167.886719 181.171875 135.800781 182.40625 L 135.800781 63.089844 " fill-opacity="1" fill-rule="nonzero"/></g><path fill="#ffffff" d="M 123.628906 71.449219 C 123.628906 71.449219 174.492188 71.449219 187.496094 120.1875 L 187.496094 218.417969 C 187.496094 218.417969 163.265625 189.527344 123.628906 190.761719 L 123.628906 71.449219 " fill-opacity="1" fill-rule="nonzero"/><path fill="#145da0" d="M 112.332031 75.367188 C 112.332031 75.367188 171.292969 75.367188 187.496094 120.1875 L 187.496094 222.339844 C 187.496094 222.339844 158.980469 193.449219 112.332031 194.679688 L 112.332031 75.367188 " fill-opacity="1" fill-rule="nonzero"/><path fill="#ffffff" d="M 104.285156 86.917969 C 104.285156 86.917969 158.398438 83.925781 187.496094 120.1875 L 187.496094 235.03125 C 187.496094 235.03125 155.929688 206.136719 104.285156 207.371094 L 104.285156 86.917969 " fill-opacity="1" fill-rule="nonzero"/><g clip-path="url(#63fe98d82b)"><path fill="#ffde59" d="M 187.503906 120.15625 L 187.496094 238.792969 C 187.496094 238.792969 153.144531 209.902344 96.949219 211.136719 L 96.949219 91.820312 C 96.949219 91.820312 104.089844 91.898438 114.621094 93.0625 C 118.867188 93.53125 123.65625 94.179688 128.757812 95.0625 C 148.511719 98.507812 172.84375 105.585938 187.503906 120.15625 " fill-opacity="1" fill-rule="nonzero"/></g><path fill="#145da0" d="M 128.757812 95.0625 L 128.757812 146.230469 L 121.691406 138.734375 L 114.621094 142.023438 L 114.621094 93.0625 C 118.867188 93.53125 123.65625 94.179688 128.757812 95.0625 " fill-opacity="1" fill-rule="nonzero"/><g clip-path="url(#6c5c67f952)"><path fill="#145da0" d="M 239.1875 63.027344 C 239.1875 63.027344 194.207031 66.632812 187.496094 120.121094 L 187.496094 210 C 187.496094 210 207.105469 181.109375 239.1875 182.339844 L 239.1875 63.027344 " fill-opacity="1" fill-rule="nonzero"/></g><path fill="#ffffff" d="M 251.363281 71.382812 C 251.363281 71.382812 200.5 71.382812 187.496094 120.121094 L 187.496094 218.355469 C 187.496094 218.355469 211.726562 189.464844 251.363281 190.699219 L 251.363281 71.382812 " fill-opacity="1" fill-rule="nonzero"/><path fill="#145da0" d="M 262.660156 75.304688 C 262.660156 75.304688 203.699219 75.304688 187.496094 120.121094 L 187.496094 222.273438 C 187.496094 222.273438 216.011719 193.382812 262.660156 194.617188 L 262.660156 75.304688 " fill-opacity="1" fill-rule="nonzero"/><path fill="#ffffff" d="M 270.707031 86.851562 C 270.707031 86.851562 216.59375 83.863281 187.496094 120.121094 L 187.496094 234.964844 C 187.496094 234.964844 219.0625 206.074219 270.707031 207.308594 L 270.707031 86.851562 " fill-opacity="1" fill-rule="nonzero"/><g clip-path="url(#c5ba71623d)"><path fill="#145da0" d="M 278.046875 91.757812 C 278.046875 91.757812 215.320312 92.429688 187.488281 120.085938 L 187.496094 238.730469 C 187.496094 238.730469 221.847656 209.839844 278.046875 211.074219 L 278.046875 91.757812 " fill-opacity="1" fill-rule="nonzero"/></g><g clip-path="url(#580fa2ce87)"><path fill="#ffffff" d="M 189.578125 238.792969 L 185.414062 238.792969 C 183.886719 238.792969 182.648438 237.554688 182.648438 236.027344 L 182.648438 116.699219 L 192.34375 116.699219 L 192.34375 236.027344 C 192.34375 237.554688 191.105469 238.792969 189.578125 238.792969 " fill-opacity="1" fill-rule="nonzero"/></g><path fill="#ffffff" d="M 192.328125 116.734375 L 193.039062 115.195312 L 190.96875 116.699219 Z M 192.328125 116.734375 " fill-opacity="1" fill-rule="nonzero"/><path fill="#ffffff" d="M 182.664062 116.734375 L 181.949219 115.195312 L 184.027344 116.699219 Z M 182.664062 116.734375 " fill-opacity="1" fill-rule="nonzero"/><path fill="#ffffff" d="M 260.292969 135.726562 L 260.292969 139.417969 C 238.421875 141.4375 217.746094 149.371094 214.726562 150.570312 L 214.726562 146.628906 C 220.5625 144.417969 239.945312 137.550781 260.292969 135.726562 " fill-opacity="1" fill-rule="nonzero"/><path fill="#ffffff" d="M 260.292969 146.230469 L 260.292969 149.921875 C 238.421875 151.949219 217.746094 159.882812 214.726562 161.078125 L 214.726562 157.136719 C 220.5625 154.925781 239.945312 148.054688 260.292969 146.230469 " fill-opacity="1" fill-rule="nonzero"/><path fill="#ffffff" d="M 260.292969 156.789062 L 260.292969 160.480469 C 238.421875 162.503906 217.746094 170.4375 214.726562 171.632812 L 214.726562 167.699219 C 220.5625 165.484375 239.945312 158.613281 260.292969 156.789062 " fill-opacity="1" fill-rule="nonzero"/><g fill="#000000" fill-opacity="1"><g transform="translate(9.833783, 297.12168)"><g><path d="M 3.4375 -34.453125 L 19.734375 -34.453125 C 23.609375 -34.453125 26.6875 -33.671875 28.96875 -32.109375 C 31.25 -30.554688 32.390625 -28.46875 32.390625 -25.84375 C 32.390625 -24.03125 31.863281 -22.441406 30.8125 -21.078125 C 29.757812 -19.722656 28.316406 -18.785156 26.484375 -18.265625 C 28.648438 -17.835938 30.367188 -16.832031 31.640625 -15.25 C 32.921875 -13.675781 33.5625 -11.773438 33.5625 -9.546875 C 33.5625 -6.628906 32.375 -4.304688 30 -2.578125 C 27.625 -0.859375 24.398438 0 20.328125 0 L 3.4375 0 Z M 12.15625 -27.765625 L 12.15625 -20.671875 L 19.25 -20.671875 C 20.519531 -20.671875 21.53125 -20.988281 22.28125 -21.625 C 23.039062 -22.269531 23.421875 -23.148438 23.421875 -24.265625 C 23.421875 -25.347656 23.039062 -26.203125 22.28125 -26.828125 C 21.53125 -27.453125 20.519531 -27.765625 19.25 -27.765625 Z M 12.15625 -14.375 L 12.15625 -6.75 L 19.25 -6.75 C 20.882812 -6.75 22.171875 -7.09375 23.109375 -7.78125 C 24.046875 -8.46875 24.515625 -9.414062 24.515625 -10.625 C 24.515625 -11.78125 24.046875 -12.691406 23.109375 -13.359375 C 22.171875 -14.035156 20.882812 -14.375 19.25 -14.375 Z M 12.15625 -14.375 "/></g></g></g><g fill="#000000" fill-opacity="1"><g transform="translate(45.025164, 297.12168)"><g><path d="M 21.21875 -11.125 L 21.21875 0 L 12.5 0 L 12.5 -10.875 L -0.25 -34.453125 L 8.515625 -34.453125 L 16.828125 -19.4375 L 24.953125 -34.453125 L 33.71875 -34.453125 Z M 21.21875 -11.125 "/></g></g></g><g fill="#000000" fill-opacity="1"><g transform="translate(78.493888, 297.12168)"><g><path d="M 29.78125 -27.421875 L 19.390625 -27.421875 L 19.390625 0 L 10.625 0 L 10.625 -27.421875 L 0.34375 -27.421875 L 0.34375 -34.5 L 29.78125 -34.5 Z M 29.78125 -27.421875 "/></g></g></g><g fill="#000000" fill-opacity="1"><g transform="translate(108.566522, 297.12168)"><g><path d="M 30.421875 -27.5625 L 12.203125 -27.5625 L 12.203125 -20.71875 L 28.640625 -20.71875 L 28.640625 -13.828125 L 12.203125 -13.828125 L 12.203125 -6.890625 L 30.953125 -6.890625 L 30.953125 0 L 3.4375 0 L 3.4375 -34.453125 L 30.421875 -34.453125 Z M 30.421875 -27.5625 "/></g></g></g><g fill="#000000" fill-opacity="1"><g transform="translate(141.739932, 297.12168)"><g/></g></g><g fill="#000000" fill-opacity="1"><g transform="translate(153.158674, 297.12168)"><g><path d="M 3.4375 -34.453125 L 19.734375 -34.453125 C 23.609375 -34.453125 26.6875 -33.671875 28.96875 -32.109375 C 31.25 -30.554688 32.390625 -28.46875 32.390625 -25.84375 C 32.390625 -24.03125 31.863281 -22.441406 30.8125 -21.078125 C 29.757812 -19.722656 28.316406 -18.785156 26.484375 -18.265625 C 28.648438 -17.835938 30.367188 -16.832031 31.640625 -15.25 C 32.921875 -13.675781 33.5625 -11.773438 33.5625 -9.546875 C 33.5625 -6.628906 32.375 -4.304688 30 -2.578125 C 27.625 -0.859375 24.398438 0 20.328125 0 L 3.4375 0 Z M 12.15625 -27.765625 L 12.15625 -20.671875 L 19.25 -20.671875 C 20.519531 -20.671875 21.53125 -20.988281 22.28125 -21.625 C 23.039062 -22.269531 23.421875 -23.148438 23.421875 -24.265625 C 23.421875 -25.347656 23.039062 -26.203125 22.28125 -26.828125 C 21.53125 -27.453125 20.519531 -27.765625 19.25 -27.765625 Z M 12.15625 -14.375 L 12.15625 -6.75 L 19.25 -6.75 C 20.882812 -6.75 22.171875 -7.09375 23.109375 -7.78125 C 24.046875 -8.46875 24.515625 -9.414062 24.515625 -10.625 C 24.515625 -11.78125 24.046875 -12.691406 23.109375 -13.359375 C 22.171875 -14.035156 20.882812 -14.375 19.25 -14.375 Z M 12.15625 -14.375 "/></g></g></g><g fill="#000000" fill-opacity="1"><g transform="translate(188.350055, 297.12168)"><g><path d="M 21.21875 -11.125 L 21.21875 0 L 12.5 0 L 12.5 -10.875 L -0.25 -34.453125 L 8.515625 -34.453125 L 16.828125 -19.4375 L 24.953125 -34.453125 L 33.71875 -34.453125 Z M 21.21875 -11.125 "/></g></g></g><g fill="#000000" fill-opacity="1"><g transform="translate(221.818768, 297.12168)"><g/></g></g><g fill="#000000" fill-opacity="1"><g transform="translate(233.237499, 297.12168)"><g><path d="M 3.4375 -34.453125 L 19.734375 -34.453125 C 23.609375 -34.453125 26.6875 -33.671875 28.96875 -32.109375 C 31.25 -30.554688 32.390625 -28.46875 32.390625 -25.84375 C 32.390625 -24.03125 31.863281 -22.441406 30.8125 -21.078125 C 29.757812 -19.722656 28.316406 -18.785156 26.484375 -18.265625 C 28.648438 -17.835938 30.367188 -16.832031 31.640625 -15.25 C 32.921875 -13.675781 33.5625 -11.773438 33.5625 -9.546875 C 33.5625 -6.628906 32.375 -4.304688 30 -2.578125 C 27.625 -0.859375 24.398438 0 20.328125 0 L 3.4375 0 Z M 12.15625 -27.765625 L 12.15625 -20.671875 L 19.25 -20.671875 C 20.519531 -20.671875 21.53125 -20.988281 22.28125 -21.625 C 23.039062 -22.269531 23.421875 -23.148438 23.421875 -24.265625 C 23.421875 -25.347656 23.039062 -26.203125 22.28125 -26.828125 C 21.53125 -27.453125 20.519531 -27.765625 19.25 -27.765625 Z M 12.15625 -14.375 L 12.15625 -6.75 L 19.25 -6.75 C 20.882812 -6.75 22.171875 -7.09375 23.109375 -7.78125 C 24.046875 -8.46875 24.515625 -9.414062 24.515625 -10.625 C 24.515625 -11.78125 24.046875 -12.691406 23.109375 -13.359375 C 22.171875 -14.035156 20.882812 -14.375 19.25 -14.375 Z M 12.15625 -14.375 "/></g></g></g><g fill="#000000" fill-opacity="1"><g transform="translate(268.42888, 297.12168)"><g><path d="M 21.21875 -11.125 L 21.21875 0 L 12.5 0 L 12.5 -10.875 L -0.25 -34.453125 L 8.515625 -34.453125 L 16.828125 -19.4375 L 24.953125 -34.453125 L 33.71875 -34.453125 Z M 21.21875 -11.125 "/></g></g></g><g fill="#000000" fill-opacity="1"><g transform="translate(301.897604, 297.12168)"><g><path d="M 29.78125 -27.421875 L 19.390625 -27.421875 L 19.390625 0 L 10.625 0 L 10.625 -27.421875 L 0.34375 -27.421875 L 0.34375 -34.5 L 29.78125 -34.5 Z M 29.78125 -27.421875 "/></g></g></g><g fill="#000000" fill-opacity="1"><g transform="translate(331.97025, 297.12168)"><g><path d="M 30.421875 -27.5625 L 12.203125 -27.5625 L 12.203125 -20.71875 L 28.640625 -20.71875 L 28.640625 -13.828125 L 12.203125 -13.828125 L 12.203125 -6.890625 L 30.953125 -6.890625 L 30.953125 0 L 3.4375 0 L 3.4375 -34.453125 L 30.421875 -34.453125 Z M 30.421875 -27.5625 "/></g></g></g></svg>